<?xml version="1.0" encoding="utf-8"?>
<!-- Generator: Adobe Illustrator 16.0.4, SVG Export Plug-In . SVG Version: 6.00 Build 0)  -->
<!DOCTYPE svg PUBLIC "-//W3C//DTD SVG 1.1//EN" "http://www.w3.org/Graphics/SVG/1.1/DTD/svg11.dtd">
<svg version="1.1" id="Layer_1" xmlns="http://www.w3.org/2000/svg" xmlns:xlink="http://www.w3.org/1999/xlink" x="0px" y="0px"
	 width="512px" height="512px" viewBox="0 0 512 512" enable-background="new 0 0 512 512" xml:space="preserve">
<path id="puddle" opacity="0.3" fill="#333333" d="M401.214,429.85c0,27.739-64.25,50.223-143.495,50.223
	c-79.259,0-143.509-22.483-143.509-50.223c0-27.738,64.248-50.227,143.509-50.227C336.964,379.623,401.214,402.115,401.214,429.85z"
	/>
<g id="shadow-legs" opacity="0.5">
	<path fill="#333333" d="M218.717,478.199V442.4c0-4.623-0.836-8.489-2.233-11.755c9.258,7.189,9.883,25.256,9.883,25.256v22.971
		c8.33,0.65,16.933,1.045,25.739,1.163l-0.232-22.857c-1.275-31.247-28.057-35.071-28.057-35.071
		c-9.788-2.222-9.642,2.689-8.658,5.863c-9.602-16.376-35.337-14.261-35.337-14.261c-8.931,3.185-0.642,8.926-0.642,8.926
		c14.032,5.1,15.306,20.405,15.306,20.405v31.912c7.727,1.324,15.819,2.418,24.235,3.242L218.717,478.199z"/>
	<path fill="#333333" d="M331.587,413.706c0,0-25.739-2.115-35.341,14.265c0.984-3.175,1.134-8.091-8.656-5.867
		c0,0-26.781,3.826-28.056,35.071l-0.235,22.894c8.793-0.034,17.395-0.344,25.74-0.907V455.9c0,0,0.629-18.066,9.884-25.256
		c-1.397,3.265-2.233,7.13-2.233,11.754v36.171c8.395-0.734,16.496-1.728,24.231-2.955v-32.575c0,0,1.275-15.306,15.307-20.405
		c0-0.014,8.28-5.755-0.648-8.943L331.587,413.706z"/>
</g>
<path fill="#333333" d="M510.963,221.659l0.378-1.876c-42.098-8.417-85.299-8.502-111.434-7.417
	c4.293-15.469,5.585-33.269,5.585-53.118c0-28.468-10.695-51.242-28.059-68.572c3.034-9.794,7.087-31.545-4.048-59.391
	c0,0-19.644-6.237-64.075,23.5c-17.406-4.35-35.93-6.498-54.48-6.498c-20.411,0-41.036,2.599-60.271,7.875
	c-45.851-31.279-66.091-24.872-66.091-24.872c-13.212,33.04-5.043,57.503-2.562,63.579c-15.529,16.759-25.009,38.154-25.009,64.384
	c0,19.802,2.254,37.566,7.761,53.006c-26.358-0.959-67.982-0.59-108.578,7.527l0.373,1.876c40.84-8.167,82.727-8.451,108.923-7.459
	c1.213,3.196,2.565,6.296,4.081,9.293c-25.906,0.834-70.143,4.136-112.536,16.096l0.522,1.837
	c42.729-12.047,87.348-15.267,113.003-16.051c15.479,28.853,45.997,47.487,100.287,53.34c-7.706,5.178-15.566,13.98-18.752,28.874
	c-10.5,5.023-43.742,17.283-63.685-17.02c0,0-11.164-20.412-32.533-22.01c0,0-20.729-0.317-1.431,12.918
	c0,0,13.87,6.535,23.44,31.097c0,0,12.484,41.892,72.727,28.452v43.272c0,0-1.274,15.306-15.306,20.405c0,0-8.291,5.74,0.642,8.925
	c0,0,38.896,3.189,38.896-28.691v-47.187c0,0-1.542-18.713,7.65-25.217v77.504c0,0-0.635,18.491-10.201,25.506
	c0,0-6.38,11.475,7.65,8.291c0,0,26.781-3.826,28.058-35.071l0.606-78.435h6.437l0.612,78.435
	c1.273,31.245,28.056,35.071,28.056,35.071c14.026,3.184,7.65-8.291,7.65-8.291c-9.564-7.015-10.2-25.506-10.2-25.506v-76.836
	c9.188,7.154,7.65,24.548,7.65,24.548v47.187c0,31.882,38.896,28.69,38.896,28.69c8.924-3.184,0.641-8.924,0.641-8.924
	c-14.031-5.1-15.307-20.405-15.307-20.405v-61.854c0-24.119-10.156-36.893-20.088-43.635c57.899-5.742,85.684-24.438,98.486-53.485
	c25.361,0.697,71.001,3.787,114.657,16.102l0.519-1.837c-43.406-12.244-88.745-15.412-114.362-16.157
	c1.213-2.934,2.272-5.986,3.212-9.125c26.006-1.081,69.411-1.067,111.668,7.376L510.963,221.659z M123.361,291.207
	c-2.287,0-4.147-1.28-4.147-2.866c0-1.587,1.86-2.874,4.147-2.874c2.288,0,4.146,1.283,4.147,2.876
	C127.506,289.928,125.648,291.207,123.361,291.207z M127.508,288.345c0-0.001,0-0.001,0-0.002s0-0.001,0-0.002V288.345z
	 M129.737,300.771c-2.287,0-4.147-1.28-4.147-2.866c0-1.587,1.86-2.874,4.147-2.874c2.288,0,4.146,1.283,4.147,2.876
	C133.883,299.492,132.025,300.771,129.737,300.771z M133.885,297.909c0-0.001,0-0.001,0-0.002s0-0.001,0-0.002V297.909z
	 M109.009,273.672c-0.001,1.585-1.859,2.865-4.146,2.865c-2.287,0-4.147-1.281-4.147-2.867c0-1.588,1.86-2.873,4.147-2.873
	C107.15,270.797,109.008,272.079,109.009,273.672z M140.893,306.837c0-0.001,0-0.001,0-0.002v0.004
	C140.893,306.838,140.893,306.838,140.893,306.837z M109.009,273.672c0-0.001,0-0.001,0-0.002v0.004
	C109.01,273.673,109.009,273.673,109.009,273.672z M120.493,280.051c0-0.001,0-0.002,0-0.002c0-0.001,0-0.002,0-0.003V280.051z
	 M116.346,282.912c-2.287,0-4.147-1.279-4.147-2.866s1.86-2.873,4.147-2.873s4.145,1.282,4.146,2.876
	C120.49,281.634,118.633,282.912,116.346,282.912z M150.471,314.483c-0.001,1.585-1.859,2.864-4.147,2.864
	c-2.287,0-4.147-1.28-4.147-2.866c0-1.587,1.86-2.874,4.147-2.874C148.611,311.607,150.469,312.89,150.471,314.483z
	 M140.893,306.837c-0.001,1.585-1.859,2.864-4.147,2.864c-2.287,0-4.147-1.28-4.147-2.866c0-1.587,1.86-2.874,4.147-2.874
	C139.033,303.961,140.891,305.244,140.893,306.837z M177.192,319.59c-0.001,1.585-1.859,2.864-4.147,2.864
	c-2.287,0-4.147-1.28-4.147-2.866c0-1.588,1.86-2.873,4.147-2.873C175.333,316.715,177.19,317.997,177.192,319.59z M190.715,317.374
	c-0.001,1.585-1.859,2.864-4.147,2.864c-2.287,0-4.147-1.28-4.147-2.866c0-1.587,1.86-2.874,4.147-2.874
	C188.855,314.498,190.713,315.781,190.715,317.374z M190.715,317.376c0-0.001,0-0.001,0-0.002s0-0.001,0-0.002V317.376z
	 M177.192,319.59c0-0.001,0-0.001,0-0.002v0.004C177.192,319.591,177.192,319.591,177.192,319.59z M150.471,314.483
	c0-0.001,0-0.001,0-0.002v0.004C150.471,314.484,150.471,314.484,150.471,314.483z M163.858,319.59c0-0.001,0-0.001,0-0.002v0.004
	C163.859,319.591,163.858,319.591,163.858,319.59z M163.858,319.59c-0.001,1.585-1.859,2.864-4.147,2.864
	c-2.287,0-4.147-1.28-4.147-2.866c0-1.588,1.86-2.873,4.147-2.873C161.999,316.715,163.857,317.997,163.858,319.59z
	 M368.631,197.552c0,68.633-51.162,70.493-114.268,70.493c-63.117,0-114.273-9.504-114.273-70.493
	c0-14.602,7.192-28.16,19.509-39.412c20.545-18.752,55.315-8.823,94.763-8.823c39.271-0.005,73.923-10.036,94.497,8.588l0.007,0.006
	C361.336,169.209,368.631,182.853,368.631,197.552z"/>
<path opacity="0.3" fill="#333333" d="M348.865,157.912l-0.007-0.006c-20.574-18.624-55.226-8.593-94.497-8.588
	c-39.448,0-74.218-9.929-94.763,8.823c-12.316,11.252-19.509,24.81-19.509,39.412c0,60.989,51.157,70.493,114.273,70.493
	c63.106,0,114.268-1.86,114.268-70.493C368.631,182.853,361.336,169.209,348.865,157.912z M192.577,235.271
	c-13.131,0-23.776-15.322-23.776-34.227c0-18.902,10.646-34.219,23.776-34.219c13.131,0.014,23.776,15.319,23.776,34.219
	C216.353,219.949,205.708,235.271,192.577,235.271z M320.145,235.271c-13.131,0-23.776-15.322-23.776-34.227
	c0-18.902,10.646-34.219,23.776-34.219c13.131,0.014,23.776,15.319,23.776,34.219C343.921,219.949,333.275,235.271,320.145,235.271z
	"/>
<path id="octo_1_" opacity="0.3" fill="#333333" d="M109.01,273.67c0,1.586-1.858,2.867-4.147,2.867
	c-2.287,0-4.147-1.281-4.147-2.867c0-1.588,1.86-2.873,4.147-2.873c2.289,0,4.147,1.283,4.147,2.877V273.67z M120.493,280.046
	c0,1.587-1.859,2.866-4.147,2.866c-2.287,0-4.147-1.279-4.147-2.866s1.86-2.873,4.147-2.873c2.288,0,4.147,1.283,4.147,2.878
	V280.046z M127.508,288.341c0,1.586-1.859,2.866-4.147,2.866c-2.287,0-4.147-1.28-4.147-2.866c0-1.587,1.86-2.874,4.147-2.874
	c2.289,0,4.147,1.284,4.147,2.878V288.341z M133.885,297.905c0,1.586-1.859,2.866-4.147,2.866c-2.287,0-4.147-1.28-4.147-2.866
	c0-1.587,1.86-2.874,4.147-2.874c2.289,0,4.147,1.284,4.147,2.878V297.905z M140.893,306.835c0,1.586-1.859,2.866-4.147,2.866
	c-2.287,0-4.147-1.28-4.147-2.866c0-1.587,1.86-2.874,4.147-2.874c2.289,0,4.147,1.284,4.147,2.878V306.835z M150.471,314.481
	c0,1.586-1.859,2.866-4.147,2.866c-2.287,0-4.147-1.28-4.147-2.866c0-1.587,1.86-2.874,4.147-2.874c2.289,0,4.147,1.283,4.147,2.878
	V314.481z M163.859,319.588c0,1.586-1.859,2.866-4.147,2.866c-2.287,0-4.147-1.28-4.147-2.866c0-1.588,1.86-2.873,4.147-2.873
	c2.289,0,4.147,1.283,4.147,2.877V319.588z M177.192,319.588c0,1.586-1.859,2.866-4.147,2.866c-2.287,0-4.147-1.28-4.147-2.866
	c0-1.588,1.86-2.873,4.147-2.873c2.289,0,4.147,1.283,4.147,2.877V319.588z M190.715,317.372c0,1.586-1.859,2.866-4.147,2.866
	c-2.287,0-4.147-1.28-4.147-2.866c0-1.587,1.86-2.874,4.147-2.874c2.289,0,4.147,1.284,4.147,2.878V317.372z"/>
<path id="eyes_1_" opacity="0" fill="#333333" d="M216.353,201.044c0,18.905-10.645,34.227-23.776,34.227
	c-13.131,0-23.776-15.322-23.776-34.227c0-18.902,10.646-34.219,23.776-34.219C205.708,166.839,216.353,182.145,216.353,201.044z
	 M343.921,201.044c0,18.905-10.646,34.227-23.776,34.227s-23.776-15.322-23.776-34.227c0-18.902,10.646-34.219,23.776-34.219
	C333.275,166.839,343.921,182.145,343.921,201.044z"/>
<g>
	<path id="pupils" fill="#333333" d="M208.734,201.477c0,12.601-7.106,22.813-15.852,22.813c-8.746,0-15.851-10.212-15.851-22.813
		c0-12.605,7.099-22.823,15.851-22.823c8.74,0,15.846,10.213,15.846,22.817L208.734,201.477z M336.288,201.477
		c0,12.601-7.105,22.813-15.852,22.813s-15.851-10.212-15.851-22.813c0-12.605,7.099-22.823,15.851-22.823
		c8.74,0,15.846,10.213,15.846,22.817L336.288,201.477z"/>
	<circle id="nose" fill="#333333" cx="254.719" cy="231.44" r="5.945"/>
	<path id="mouth" fill="#333333" d="M240.845,246.476c-0.351-0.997,0.173-2.087,1.163-2.438c0.996-0.351,2.089,0.173,2.438,1.163
		c1.532,4.32,5.629,7.222,10.201,7.222s8.669-2.9,10.201-7.222c0.351-0.997,1.441-1.514,2.438-1.163
		c0.996,0.352,1.514,1.441,1.164,2.438c-2.065,5.841-7.617,9.766-13.804,9.766c-6.186,0-11.726-3.904-13.793-9.754L240.845,246.476z
		"/>
</g>
<path id="drop" opacity="0.5" fill="#333333" d="M93.782,282.181l-4.142,14.432c0,0-1.081,5.216,3.836,6.142
	c5.134-0.1,4.709-4.9,4.354-6.459L93.782,282.181z"/>
</svg>
